<?xml version="1.0" encoding="UTF-8"?><svg id="Layer_1" xmlns="http://www.w3.org/2000/svg" xmlns:xlink="http://www.w3.org/1999/xlink" viewBox="0 0 319.44 328.51"><defs><style>.cls-1{clip-path:url(#clippath);}.cls-2{fill:none;}.cls-2,.cls-3{stroke-width:0px;}.cls-3{fill:#000d2e;}</style><clipPath id="clippath"><rect class="cls-2" width="319.44" height="328.51"/></clipPath></defs><g class="cls-1"><path class="cls-3" d="m204.08,309.08l-12.15,3.53,3.13,10.91-6.44,1.87-7.37-26.27,6.29-1.83,2.91,10.15,12.04-3.49-3.14-10.09,6.25-1.82,8.25,26.02-6.4,1.86-3.37-10.83Zm89.58-206.98c-4.47,2.31-9.76.58-12.01-3.64-2.26-4.26-.69-9.54,3.79-11.85,4.47-2.31,9.76-.58,12.03,3.68,2.24,4.22.67,9.5-3.81,11.81m9.15-14.57c-3.88-7.32-12.61-10.55-20.35-6.55-7.74,4-10.03,12.91-6.14,20.23,3.88,7.32,12.61,10.55,20.35,6.55,7.74-4,10.02-12.91,6.14-20.23M186.07,14.17l-2.14,15.66-6.5-.88,1.81-14.25c.6-4.71-.44-7.86-5.02-8.43-4.66-.58-6.46,2.3-7.05,6.94l-1.81,14.25-6.52-.73,1.82-15.58c.95-7.5,6.04-11.85,14.3-10.83,8.22,1.02,12.03,6.43,11.09,13.85m-47.12,286.68l5.91.11,13.98,16.75-.07-16.54,6.44.11.02,27.25-6.41-.1v-.66c0-.93-.57-2.23-1.58-3.36l-12.23-14.75-.43,18.56-6.51-.1.9-27.26ZM207.56,7.99l6.1,2.16-5.02,17.31,13.89-12.79,3.69,1.68-.89,18.72,10.05-14.94,5.67,3.26-15.9,22.2-5.84-2.66.78-18.18-13.71,12.28-5.95-2.71,7.13-26.31Zm49.67,26.47l5.02,4.04-10.55,14.54,17.43-7.44,2.9,2.81-7.21,17.34,14.52-10.72,4.25,4.93-22.52,15.63-4.59-4.45,6.92-16.86-17.1,7.02-4.68-4.53,15.59-22.31ZM43.66,270.9c-4.44,2.38-9.76.72-12.06-3.47-.28-.51-.51-1.04-.68-1.58l17.39-1.77c-.29,2.75-1.91,5.34-4.65,6.82m-8.45-15.37c4.44-2.37,9.75-.72,12.08,3.5.25.46.45.94.62,1.42l-17.33,1.78c.32-2.72,1.92-5.25,4.63-6.7m23.1,7.54l-.39-3.64-3.87.4c-.33-1.23-.81-2.45-1.45-3.63-3.99-7.26-12.77-10.36-20.45-6.25-5.18,2.77-7.84,7.75-7.8,12.92l-3.96.41.51,3.59,3.92-.4c.33,1.29.82,2.57,1.5,3.79,3.99,7.26,12.77,10.36,20.45,6.25,5.23-2.8,7.89-7.84,7.8-13.07l3.76-.38Zm186,5.62l5.3-4.69,20.52,7.85-9.06-19.84,4.37-5.44,12.71,28.01-4.76,4.99-29.07-10.88ZM144.07,26.96l-5.83.96-16.84-13.94,3.13,16.25-6.35,1.06-5.06-26.79,6.32-1.06.13.65c.16.92.96,2.09,2.17,3.02l14.76,12.3-3.02-18.33L139.9,0l4.17,26.96Zm127.84,210.42l2.68-5.2,21.37-5.12-15.12-7.14,2.9-5.67,24.87,11.86-2.88,5.65-.61-.28c-.85-.42-2.28-.47-3.75-.06l-18.79,4.44,16.75,8.47-2.93,5.74-24.48-12.67Zm-247.03-23.13l2.86,5.86-9.6,4.57c3.76,2.58,9.62,4.63,14.04,4.52l3.03,6.21c-5.27.43-12.2-2.02-16.49-4.6l-7.81,17.64-3.57-7.3,6.49-14.42-10.98,5.23L0,226.09l24.88-11.84Zm48.65,75.14c2.02,1.36,4.05,1.4,5.25-.33,1.07-1.54.66-3.09-1.75-4.72l-3.55-2.39-3.49,5.05,3.55,2.39Zm-5.07,10.3c2.41,1.62,4.29,1.33,5.47-.37,1.05-1.51.75-3.36-1.73-5.03l-4.96-3.33-3.74,5.4,4.95,3.33Zm2.37-25.46l9.03,6.08c6.55,4.41,7.27,8.14,4.84,11.65-1.42,2.06-3.65,3.06-6.33,2.67,2.48,2.84,2.7,5.83.84,8.53-2.56,3.7-6.9,5.07-13.51.61l-10.43-7.02,15.57-22.52Zm240.15-67.57l-3.07-5.36c3.03-1.67,4.76-3.68,5.34-6.58.52-2.6-.2-4.64-2.17-5.03-2.25-.44-3.74,2.12-4.83,4.76-1.85,4.84-4.86,9.18-10.62,8.06-5.15-1-7.52-5.63-6.24-12.01.86-4.32,2.62-7.27,6.39-9.63l2.94,5.22c-2.15,1.29-3.49,3.17-3.99,5.65-.52,2.6.12,4.23,1.67,4.53,1.94.38,3.37-1.58,4.48-4.5,2.05-5.23,4.79-9.57,10.94-8.37,6.15,1.2,8.03,6.69,6.86,12.57-1.01,5.04-3.61,8.38-7.69,10.68m-18.54-61.33l-1.4-6.35,10.41-2.23c-3.04-3.37-8.26-6.72-12.58-7.63l-1.48-6.74c5.22.79,11.39,4.77,14.94,8.28l11.77-15.35,1.74,7.91-9.72,12.52,11.92-2.55,1.4,6.35-27,5.78ZM104.16,36.04l-18.88,8.79-2.34-4.9,12.92-6.01-2.29-4.79-10.78,5.02-2.34-4.9,10.78-5.02-2.47-5.18-12.92,6.01-2.34-4.9,18.88-8.79,11.78,24.65Zm-.93,255.81l19.91,6.18-1.65,5.16-13.63-4.23-1.61,5.05,11.37,3.53-1.65,5.16-11.37-3.53-1.74,5.46,13.63,4.23-1.65,5.16-19.91-6.18,8.29-26Zm129.89,4.68l-1.64-10.85,9.24,6.18-7.61,4.68Zm17.66,2.04l5.59-4.09-25.29-16.03-5.88,3.65,3.76,29.39,5.95-3.08-.91-6.05,11.7-7.19,5.08,3.4Zm-96.48-49.32c-10.16,0-14.5,7.51-27.92,7.51,5.17,1.51,16.36,3.95,27.92,3.95,11.56,0,22.75-2.44,27.92-3.95-13.42,0-17.76-7.51-27.92-7.51m52.33-16.25c-4.21,2.31-8.43,3.83-16.11,3.83s-11.85-1.75-16.06-4.05c-4.68-2.57-10.12-5.82-20.16-5.9-10.03.08-15.47,3.33-20.16,5.9-4.21,2.31-8.39,4.05-16.06,4.05s-11.9-1.52-16.11-3.83c-4.74-2.6-11.08-6.85-21.69-5.68,16.05,20.36,38.08,20.05,38.08,20.05,9.72,0,15.24-1.96,19.98-4.56,4.15-2.28,8.47-5.02,15.96-5.09,7.49.07,11.81,2.81,15.96,5.09,4.74,2.6,10.26,4.56,19.98,4.56,0,0,22.04.31,38.08-20.05-10.61-1.16-16.95,3.08-21.69,5.68m21.19-28.88c-10.54,0-16.05,4.03-20.92,6.69-4.32,2.36-8.04,4.65-15.91,4.65s-11.6-2.29-15.91-4.65c-4.84-2.65-10.35-5.65-20.78-5.69-10.42.04-15.94,3.04-20.77,5.69-4.32,2.36-8.04,4.65-15.91,4.65s-11.6-2.29-15.91-4.65c-4.86-2.67-10.38-6.69-20.92-6.69-6.66,0-14.62,2.07-14.62,2.07l5.72,9.81s4.79-.85,8.9-.85c7.87,0,12.12,2.29,16.43,4.65,4.86,2.67,8.92,6.34,19.46,6.34s16.29-3.37,21.15-6.03c4.29-2.35,8.7-4.38,16.47-4.4,7.77.03,12.19,2.06,16.47,4.4,4.86,2.67,10.61,6.03,21.15,6.03s14.6-3.67,19.46-6.34c4.31-2.36,8.56-4.65,16.43-4.65,4.11,0,8.9.85,8.9.85l5.72-9.81s-7.95-2.07-14.62-2.07m-115.9-121.52l-8.38-1.87,5.83,6.22-5.83,6.22,8.38-1.87,2.55,8.1,2.55-8.1,8.38,1.87-5.83-6.22,5.83-6.22-8.38,1.87-2.55-8.1-2.55,8.1Zm106.5,68.93h2.65v-3.86s-3.41-.69-3.41-4.21h-.02l-.19-3.38,3.29-2.64.65-6.95h-4.81l-.62,4.92h-4.65l-.69-4.92h-5.3l-.69,4.92h-4.65l-.62-4.92h-4.81l.65,6.95,3.29,2.64-.19,3.38h-.02c0,3.51-3.41,4.21-3.41,4.21v3.86h2.65c-.12,13.06-6.69,31.93-6.69,46.1h34.27c0-14.17-6.57-33.04-6.69-46.1m.24-25.57v-2.27c0-6.51-4.86-10.58-10.69-10.58s-10.69,4.07-10.69,10.58v2.27s21.38,0,21.38,0Zm-107.61,25.57h2.65v-3.86s-3.41-.69-3.41-4.21h-.02l-.19-3.38,3.29-2.64.65-6.95h-4.81l-.62,4.92h-4.65l-.69-4.92h-5.3l-.69,4.92h-4.65l-.62-4.92h-4.81l.65,6.95,3.29,2.64-.19,3.38h-.02c0,3.51-3.41,4.21-3.41,4.21v3.86h2.65c-.12,13.06-6.69,31.93-6.69,46.1h34.27c0-14.17-6.57-33.04-6.69-46.1m48.63-85.39c0-2.94-2.42-5.32-5.39-5.32s-5.4,2.38-5.4,5.32,2.41,5.32,5.4,5.32,5.39-2.38,5.39-5.32m16.66,73.56h-44.11v6.57s2.75,1.21,2.75,4.22c0,6.03-4.75,29.91-3.84,47.15h15.36l1.15-16.37c.51-4.13,3.2-6.55,6.63-6.55s6.12,2.41,6.63,6.55l1.15,16.37h15.36c.91-17.23-3.84-41.12-3.84-47.15,0-3.01,2.75-4.22,2.75-4.22v-6.57m-65.04-13.73v-2.27c0-6.51-4.86-10.58-10.69-10.58s-10.69,4.07-10.69,10.58v2.27s21.38,0,21.38,0Zm59.8,8.53s-1.08-8.16-1.08-10.88c0-3.92,3.8-5.42,3.8-5.42l.47-8.72h-7.23s-.74,5.48-.74,5.48h-6.38l-.74-5.47h-9.85l-.74,5.47h-6.38l-.74-5.48h-7.23s.47,8.71.47,8.71c0,0,3.8,1.51,3.8,5.42,0,2.71-1.08,10.88-1.08,10.88h33.63Zm22.35-57.95c-2.93-.16-5.62.86-7.62,2.62-.14.12-.02.34.16.29,1.25-.36,2.63-.42,4.06-.08,3.03.72,5.4,3.22,5.9,6.25.81,4.89-2.99,9.11-7.79,9.11-.76,0-1.48-.11-2.18-.31-.18-.05-.3.17-.16.29,1.87,1.64,4.32,2.64,7.02,2.64,6,0,10.83-4.94,10.55-10.92-.25-5.27-4.61-9.62-9.95-9.92m-22.91,26.31v1.54h-32.51v-1.54h0c0-3.72,16.25-28.18,16.25-28.18,0,0,16.25,24.46,16.25,28.18h0Z"/></g></svg>