<svg width="129" height="30" viewBox="0 0 129 30" fill="none" xmlns="http://www.w3.org/2000/svg">
<g clip-path="url(#clip0_144_2164)">
<mask id="mask0_144_2164" style="mask-type:luminance" maskUnits="userSpaceOnUse" x="0" y="0" width="129" height="30">
<path d="M129 0H0V30H129V0Z" fill="white"/>
</mask>
<g mask="url(#mask0_144_2164)">
<path d="M19.6518 2.68125C19.6518 2.41875 19.6518 2.34375 19.9535 2.30625C20.1987 2.26875 20.6136 2.25 21.0097 2.25C21.4246 2.25 21.8206 2.26875 22.0658 2.30625C22.3676 2.34375 22.3676 2.41875 22.3676 2.68125V24C22.3676 24.2625 22.3676 24.3375 22.0658 24.375C21.8206 24.4125 21.4246 24.4313 21.0097 24.4313C20.6136 24.4313 20.1987 24.4125 19.9535 24.375C19.6518 24.3375 19.6518 24.2625 19.6518 24V14.3438C19.6518 14.1188 19.5763 14.0438 19.35 14.0438C17.1623 14.1938 15.0123 14.2688 12.8623 14.2688C10.7123 14.2688 8.60001 14.1938 6.41229 14.0438C6.18597 14.0438 6.11053 14.1188 6.11053 14.3438V24C6.11053 24.2625 6.11053 24.3375 5.80878 24.375C5.5636 24.4125 5.16755 24.4313 4.75264 24.4313C4.35659 24.4313 3.94167 24.4125 3.6965 24.375C3.39474 24.3375 3.39474 24.2625 3.39474 24V2.68125C3.39474 2.41875 3.39474 2.34375 3.6965 2.30625C3.94167 2.26875 4.35659 2.25 4.75264 2.25C5.16755 2.25 5.5636 2.26875 5.80878 2.30625C6.11053 2.34375 6.11053 2.41875 6.11053 2.68125V11.7188C6.11053 11.9438 6.18597 12.0188 6.41229 12.0188C8.58115 12.1125 10.7311 12.15 12.8811 12.15C15.0311 12.15 17.1811 12.1125 19.35 12.0188C19.5763 12.0188 19.6518 11.9438 19.6518 11.7188V2.68125ZM26.5777 15.3563C26.5777 20.9813 28.7277 22.6313 33.2163 22.6313C37.7049 22.6313 39.855 20.9813 39.855 15.3563V2.68125C39.855 2.41875 39.855 2.34375 40.1567 2.30625C40.4019 2.26875 40.798 2.25 41.1751 2.25C41.5712 2.25 41.9484 2.26875 42.1936 2.30625C42.4953 2.34375 42.4953 2.41875 42.4953 2.68125V15.375C42.4953 22.8188 38.912 24.7125 33.1785 24.7125C27.4452 24.7125 23.8619 22.8188 23.8619 15.375V2.68125C23.8619 2.41875 23.8619 2.34375 24.1636 2.30625C24.4088 2.26875 24.8237 2.25 25.2198 2.25C25.6347 2.25 26.0307 2.26875 26.2759 2.30625C26.5777 2.34375 26.5777 2.41875 26.5777 2.68125V15.3563ZM55.5571 20.475C55.1045 20.475 54.9725 20.4375 54.8028 20.0625L47.919 4.85625C47.8435 4.70625 47.8435 4.70625 47.6549 4.70625H47.5418C47.4286 4.70625 47.3532 4.70625 47.3532 4.85625L46.3159 24.0375C46.2971 24.2625 46.2782 24.3375 46.0142 24.375C45.7501 24.4125 45.3541 24.4313 44.9392 24.4313C44.5431 24.4313 44.1471 24.4125 43.9019 24.375C43.6756 24.3375 43.6378 24.2625 43.6378 24.1125L45.0335 2.83125C45.0523 2.41875 45.1843 2.34375 45.637 2.34375H48.994C49.4843 2.34375 49.5598 2.34375 49.7484 2.75625L56.2927 17.475C56.3681 17.625 56.3681 17.625 56.519 17.625H56.6321C56.783 17.625 56.783 17.625 56.8585 17.475L63.4028 2.75625C63.5914 2.34375 63.6668 2.34375 64.1571 2.34375H67.5142C67.9668 2.34375 68.0988 2.41875 68.1177 2.83125L69.5133 24.1125C69.5133 24.2625 69.4756 24.3375 69.2492 24.375C69.0041 24.4125 68.5892 24.4313 68.1742 24.4313C67.7593 24.4313 67.3256 24.4125 67.0615 24.375C66.7975 24.3375 66.7786 24.2625 66.7598 24.0375L65.7225 4.85625C65.7225 4.70625 65.647 4.70625 65.5339 4.70625H65.4207C65.2321 4.70625 65.2321 4.70625 65.1567 4.85625L58.2729 20.0625C58.1032 20.4375 57.9712 20.475 57.5185 20.475H55.5571ZM87.4069 24L87.2183 22.8188C87.1806 22.6313 87.1052 22.6125 86.9543 22.6125H86.86C86.7091 22.6125 86.6714 22.6125 86.5205 22.7625C85.5776 23.6625 84.2197 24.6 81.4661 24.6C77.2416 24.6 73.7337 22.3875 73.7337 16.0125C73.7337 9.6375 77.2416 7.425 81.4661 7.425C84.2197 7.425 85.5776 8.4 86.5205 9.3C86.6714 9.45 86.7091 9.45 86.86 9.45H86.9354C87.0863 9.45 87.1618 9.45 87.1995 9.2625L87.3881 8.04375C87.4258 7.78125 87.4258 7.70625 87.6898 7.66875C87.8973 7.63125 88.2745 7.6125 88.6328 7.6125C89.01 7.6125 89.3683 7.63125 89.5758 7.66875C89.8398 7.70625 89.8398 7.78125 89.8398 8.04375V24C89.8398 24.2625 89.8021 24.3188 89.5381 24.375C89.3306 24.4125 88.9911 24.4313 88.6328 24.4313C88.2933 24.4313 87.9539 24.4125 87.7464 24.375C87.4824 24.3188 87.4447 24.2438 87.4069 24ZM81.9188 22.65C86.0302 22.65 87.4635 20.025 87.4635 16.0313C87.4635 12.0375 86.0302 9.375 81.9188 9.375C77.8074 9.375 76.374 12.0375 76.374 16.0313C76.374 20.025 77.8074 22.65 81.9188 22.65ZM107.195 14.6063C107.195 11.1375 106.195 9.43125 102.876 9.43125C99.9716 9.43125 97.7273 10.9313 97.7273 15.3188V24C97.7273 24.2625 97.7273 24.3375 97.4256 24.375C97.1804 24.4125 96.8032 24.4313 96.426 24.4313C96.0488 24.4313 95.6716 24.4125 95.4264 24.375C95.1247 24.3375 95.1247 24.2625 95.1247 24V8.04375C95.1247 7.78125 95.1624 7.725 95.4264 7.66875C95.6339 7.63125 95.9734 7.6125 96.3317 7.6125C96.6712 7.6125 97.0106 7.63125 97.2181 7.66875C97.4821 7.725 97.5199 7.78125 97.5576 8.04375L97.7273 9.225C97.7462 9.375 97.8216 9.43125 97.9725 9.43125H98.0291C98.1799 9.43125 98.2365 9.43125 98.3685 9.28125C99.2927 8.30625 100.783 7.425 103.442 7.425C107.855 7.425 109.797 9.46875 109.797 14.2125V24C109.797 24.2625 109.797 24.3375 109.496 24.375C109.251 24.4125 108.873 24.4313 108.496 24.4313C108.119 24.4313 107.742 24.4125 107.497 24.375C107.195 24.3375 107.195 24.2625 107.195 24V14.6063ZM113.962 12.075C113.962 8.2875 117.47 7.3875 121.205 7.3875C123.883 7.3875 126.24 7.96875 126.9 8.175C127.277 8.2875 127.24 8.4 127.24 8.83125C127.24 9.20625 127.202 9.65625 127.126 9.975C127.07 10.1813 126.994 10.2375 126.862 10.2375C126.806 10.2375 126.712 10.2188 126.617 10.2C124.788 9.76875 123.223 9.4125 121.242 9.4125C119.017 9.4125 116.622 9.80625 116.622 11.85C116.622 13.7438 118.319 14.0063 121.563 14.5688C125.863 15.3188 128.069 16.2 128.069 19.725C128.069 23.6625 124.26 24.6 120.526 24.6C117.546 24.6 115.019 24 114.189 23.775C113.849 23.6813 113.812 23.6063 113.793 23.3438C113.755 22.9125 113.812 22.2 113.906 21.825C113.962 21.6 114.019 21.525 114.151 21.525C114.226 21.525 114.302 21.5438 114.396 21.5625C115.679 21.9 117.998 22.575 120.658 22.575C122.808 22.575 125.41 22.2 125.41 19.875C125.41 18.15 124.43 17.5688 121.11 17.0063C116.81 16.2938 113.962 15.6188 113.962 12.075Z" fill="#FCFCFC"/>
<path d="M71.4781 19.125C72.2072 19.125 72.7982 18.5374 72.7982 17.8125C72.7982 17.0876 72.2072 16.5 71.4781 16.5C70.749 16.5 70.1579 17.0876 70.1579 17.8125C70.1579 18.5374 70.749 19.125 71.4781 19.125Z" fill="#4E7A58"/>
</g>
</g>
<defs>
<clipPath id="clip0_144_2164">
<rect width="129" height="30" fill="white"/>
</clipPath>
</defs>
</svg>
