<svg width="342" height="80" viewBox="0 0 342 80" fill="none" xmlns="http://www.w3.org/2000/svg">
<g clip-path="url(#clip0_18_483)">
<mask id="mask0_18_483" style="mask-type:luminance" maskUnits="userSpaceOnUse" x="0" y="0" width="342" height="80">
<path d="M342 0H0V80H342V0Z" fill="white"/>
</mask>
<g mask="url(#mask0_18_483)">
<path d="M52.1 7.15C52.1 6.45 52.1 6.25 52.9 6.15C53.55 6.05 54.65 6 55.7 6C56.8 6 57.85 6.05 58.5 6.15C59.3 6.25 59.3 6.45 59.3 7.15V64C59.3 64.7 59.3 64.9 58.5 65C57.85 65.1 56.8 65.15 55.7 65.15C54.65 65.15 53.55 65.1 52.9 65C52.1 64.9 52.1 64.7 52.1 64V38.25C52.1 37.65 51.9 37.45 51.3 37.45C45.5 37.85 39.8 38.05 34.1 38.05C28.4 38.05 22.8 37.85 17 37.45C16.4 37.45 16.2 37.65 16.2 38.25V64C16.2 64.7 16.2 64.9 15.4 65C14.75 65.1 13.7 65.15 12.6 65.15C11.55 65.15 10.45 65.1 9.8 65C9 64.9 9 64.7 9 64V7.15C9 6.45 9 6.25 9.8 6.15C10.45 6.05 11.55 6 12.6 6C13.7 6 14.75 6.05 15.4 6.15C16.2 6.25 16.2 6.45 16.2 7.15V31.25C16.2 31.85 16.4 32.05 17 32.05C22.75 32.3 28.45 32.4 34.15 32.4C39.85 32.4 45.55 32.3 51.3 32.05C51.9 32.05 52.1 31.85 52.1 31.25V7.15ZM70.4617 40.95C70.4617 55.95 76.1617 60.35 88.0617 60.35C99.9617 60.35 105.662 55.95 105.662 40.95V7.15C105.662 6.45 105.662 6.25 106.462 6.15C107.112 6.05 108.162 6 109.162 6C110.212 6 111.212 6.05 111.862 6.15C112.662 6.25 112.662 6.45 112.662 7.15V41C112.662 60.85 103.162 65.9 87.9617 65.9C72.7617 65.9 63.2617 60.85 63.2617 41V7.15C63.2617 6.45 63.2617 6.25 64.0617 6.15C64.7117 6.05 65.8117 6 66.8617 6C67.9617 6 69.0117 6.05 69.6617 6.15C70.4617 6.25 70.4617 6.45 70.4617 7.15V40.95ZM147.291 54.6C146.091 54.6 145.741 54.5 145.291 53.5L127.041 12.95C126.841 12.55 126.841 12.55 126.341 12.55H126.041C125.741 12.55 125.541 12.55 125.541 12.95L122.791 64.1C122.741 64.7 122.691 64.9 121.991 65C121.291 65.1 120.241 65.15 119.141 65.15C118.091 65.15 117.041 65.1 116.391 65C115.791 64.9 115.691 64.7 115.691 64.3L119.391 7.55C119.441 6.45 119.791 6.25 120.991 6.25H129.891C131.191 6.25 131.391 6.25 131.891 7.35L149.241 46.6C149.441 47 149.441 47 149.841 47H150.141C150.541 47 150.541 47 150.741 46.6L168.091 7.35C168.591 6.25 168.791 6.25 170.091 6.25H178.991C180.191 6.25 180.541 6.45 180.591 7.55L184.291 64.3C184.291 64.7 184.191 64.9 183.591 65C182.941 65.1 181.841 65.15 180.741 65.15C179.641 65.15 178.491 65.1 177.791 65C177.091 64.9 177.041 64.7 176.991 64.1L174.241 12.95C174.241 12.55 174.041 12.55 173.741 12.55H173.441C172.941 12.55 172.941 12.55 172.741 12.95L154.491 53.5C154.041 54.5 153.691 54.6 152.491 54.6H147.291ZM231.73 64L231.23 60.85C231.13 60.35 230.93 60.3 230.53 60.3H230.28C229.88 60.3 229.78 60.3 229.38 60.7C226.88 63.1 223.28 65.6 215.98 65.6C204.78 65.6 195.48 59.7 195.48 42.7C195.48 25.7 204.78 19.8 215.98 19.8C223.28 19.8 226.88 22.4 229.38 24.8C229.78 25.2 229.88 25.2 230.28 25.2H230.48C230.88 25.2 231.08 25.2 231.18 24.7L231.68 21.45C231.78 20.75 231.78 20.55 232.48 20.45C233.03 20.35 234.03 20.3 234.98 20.3C235.98 20.3 236.93 20.35 237.48 20.45C238.18 20.55 238.18 20.75 238.18 21.45V64C238.18 64.7 238.08 64.85 237.38 65C236.83 65.1 235.93 65.15 234.98 65.15C234.08 65.15 233.18 65.1 232.63 65C231.93 64.85 231.83 64.65 231.73 64ZM217.18 60.4C228.08 60.4 231.88 53.4 231.88 42.75C231.88 32.1 228.08 25 217.18 25C206.28 25 202.48 32.1 202.48 42.75C202.48 53.4 206.28 60.4 217.18 60.4ZM284.191 38.95C284.191 29.7 281.541 25.15 272.741 25.15C265.041 25.15 259.091 29.15 259.091 40.85V64C259.091 64.7 259.091 64.9 258.291 65C257.641 65.1 256.641 65.15 255.641 65.15C254.641 65.15 253.641 65.1 252.991 65C252.191 64.9 252.191 64.7 252.191 64V21.45C252.191 20.75 252.291 20.6 252.991 20.45C253.541 20.35 254.441 20.3 255.391 20.3C256.291 20.3 257.191 20.35 257.741 20.45C258.441 20.6 258.541 20.75 258.641 21.45L259.091 24.6C259.141 25 259.341 25.15 259.741 25.15H259.891C260.291 25.15 260.441 25.15 260.791 24.75C263.241 22.15 267.191 19.8 274.241 19.8C285.941 19.8 291.091 25.25 291.091 37.9V64C291.091 64.7 291.091 64.9 290.291 65C289.641 65.1 288.641 65.15 287.641 65.15C286.641 65.15 285.641 65.1 284.991 65C284.191 64.9 284.191 64.7 284.191 64V38.95ZM302.133 32.2C302.133 22.1 311.433 19.7 321.333 19.7C328.433 19.7 334.683 21.25 336.433 21.8C337.433 22.1 337.333 22.4 337.333 23.55C337.333 24.55 337.233 25.75 337.033 26.6C336.883 27.15 336.683 27.3 336.333 27.3C336.183 27.3 335.933 27.25 335.683 27.2C330.833 26.05 326.683 25.1 321.433 25.1C315.533 25.1 309.183 26.15 309.183 31.6C309.183 36.65 313.683 37.35 322.283 38.85C333.683 40.85 339.533 43.2 339.533 52.6C339.533 63.1 329.433 65.6 319.533 65.6C311.633 65.6 304.933 64 302.733 63.4C301.833 63.15 301.733 62.95 301.683 62.25C301.583 61.1 301.733 59.2 301.983 58.2C302.133 57.6 302.283 57.4 302.633 57.4C302.833 57.4 303.033 57.45 303.283 57.5C306.683 58.4 312.833 60.2 319.883 60.2C325.583 60.2 332.483 59.2 332.483 53C332.483 48.4 329.883 46.85 321.083 45.35C309.683 43.45 302.133 41.65 302.133 32.2Z" fill="#1E3123"/>
<path d="M189.5 51C191.433 51 193 49.433 193 47.5C193 45.567 191.433 44 189.5 44C187.567 44 186 45.567 186 47.5C186 49.433 187.567 51 189.5 51Z" fill="#4E7A58"/>
</g>
</g>
<defs>
<clipPath id="clip0_18_483">
<rect width="342" height="80" fill="white"/>
</clipPath>
</defs>
</svg>
