<svg width="218" height="51" viewBox="0 0 218 51" fill="none" xmlns="http://www.w3.org/2000/svg">
<g clip-path="url(#clip0_18_485)">
<mask id="mask0_18_485" style="mask-type:luminance" maskUnits="userSpaceOnUse" x="0" y="0" width="218" height="51">
<path d="M218 0H0V51H218V0Z" fill="white"/>
</mask>
<g mask="url(#mask0_18_485)">
<path d="M33.2099 4.55812C33.2099 4.11187 33.2099 3.98437 33.7199 3.92062C34.1342 3.85687 34.8354 3.825 35.5047 3.825C36.2059 3.825 36.8751 3.85687 37.2895 3.92062C37.7994 3.98437 37.7994 4.11187 37.7994 4.55812V40.8C37.7994 41.2463 37.7994 41.3738 37.2895 41.4375C36.8751 41.5013 36.2059 41.5331 35.5047 41.5331C34.8354 41.5331 34.1342 41.5013 33.7199 41.4375C33.2099 41.3738 33.2099 41.2463 33.2099 40.8V24.3844C33.2099 24.0019 33.0825 23.8744 32.7 23.8744C29.0029 24.1294 25.3696 24.2569 21.7363 24.2569C18.1029 24.2569 14.5333 24.1294 10.8363 23.8744C10.4538 23.8744 10.3263 24.0019 10.3263 24.3844V40.8C10.3263 41.2463 10.3263 41.3738 9.81638 41.4375C9.40205 41.5013 8.73275 41.5331 8.03158 41.5331C7.36229 41.5331 6.66112 41.5013 6.24679 41.4375C5.73685 41.3738 5.73685 41.2463 5.73685 40.8V4.55812C5.73685 4.11187 5.73685 3.98437 6.24679 3.92062C6.66112 3.85687 7.36229 3.825 8.03158 3.825C8.73275 3.825 9.40205 3.85687 9.81638 3.92062C10.3263 3.98437 10.3263 4.11187 10.3263 4.55812V19.9219C10.3263 20.3044 10.4538 20.4319 10.8363 20.4319C14.5015 20.5913 18.1348 20.655 21.7681 20.655C25.4015 20.655 29.0348 20.5913 32.7 20.4319C33.0825 20.4319 33.2099 20.3044 33.2099 19.9219V4.55812ZM44.9142 26.1056C44.9142 35.6681 48.5475 38.4731 56.1329 38.4731C63.7183 38.4731 67.3518 35.6681 67.3518 26.1056V4.55812C67.3518 4.11187 67.3518 3.98437 67.8617 3.92062C68.2761 3.85687 68.9454 3.825 69.5828 3.825C70.2521 3.825 70.8895 3.85687 71.3038 3.92062C71.8138 3.98437 71.8138 4.11187 71.8138 4.55812V26.1375C71.8138 38.7919 65.7582 42.0113 56.0692 42.0113C46.3803 42.0113 40.3247 38.7919 40.3247 26.1375V4.55812C40.3247 4.11187 40.3247 3.98437 40.8347 3.92062C41.249 3.85687 41.9501 3.825 42.6194 3.825C43.3206 3.825 43.9899 3.85687 44.4042 3.92062C44.9142 3.98437 44.9142 4.11187 44.9142 4.55812V26.1056ZM93.8872 34.8075C93.1223 34.8075 92.8992 34.7438 92.6124 34.1063L80.9793 8.25563C80.8519 8.00063 80.8519 8.00063 80.5331 8.00063H80.3419C80.1507 8.00063 80.0232 8.00063 80.0232 8.25563L78.2703 40.8638C78.2384 41.2463 78.2065 41.3738 77.7603 41.4375C77.3141 41.5013 76.6448 41.5331 75.9437 41.5331C75.2744 41.5331 74.6051 41.5013 74.1908 41.4375C73.8083 41.3738 73.7446 41.2463 73.7446 40.9913L76.103 4.81313C76.1349 4.11187 76.358 3.98437 77.1229 3.98437H82.796C83.6247 3.98437 83.7522 3.98437 84.0709 4.68562L95.1302 29.7075C95.2577 29.9625 95.2577 29.9625 95.5127 29.9625H95.7039C95.9589 29.9625 95.9589 29.9625 96.0864 29.7075L107.146 4.68562C107.464 3.98437 107.592 3.98437 108.421 3.98437H114.094C114.859 3.98437 115.082 4.11187 115.114 4.81313L117.472 40.9913C117.472 41.2463 117.408 41.3738 117.026 41.4375C116.612 41.5013 115.91 41.5331 115.209 41.5331C114.508 41.5331 113.775 41.5013 113.329 41.4375C112.883 41.3738 112.851 41.2463 112.819 40.8638L111.066 8.25563C111.066 8.00063 110.938 8.00063 110.747 8.00063H110.556C110.237 8.00063 110.237 8.00063 110.11 8.25563L98.4767 34.1063C98.1899 34.7438 97.9668 34.8075 97.2019 34.8075H93.8872ZM147.711 40.8L147.392 38.7919C147.328 38.4731 147.201 38.4413 146.946 38.4413H146.787C146.532 38.4413 146.468 38.4413 146.213 38.6963C144.619 40.2263 142.325 41.82 137.671 41.82C130.532 41.82 124.604 38.0588 124.604 27.2213C124.604 16.3838 130.532 12.6225 137.671 12.6225C142.325 12.6225 144.619 14.28 146.213 15.81C146.468 16.065 146.532 16.065 146.787 16.065H146.914C147.169 16.065 147.297 16.065 147.36 15.7463L147.679 13.6744C147.743 13.2281 147.743 13.1006 148.189 13.0369C148.54 12.9731 149.177 12.9412 149.783 12.9412C150.42 12.9412 151.026 12.9731 151.376 13.0369C151.822 13.1006 151.822 13.2281 151.822 13.6744V40.8C151.822 41.2463 151.759 41.3419 151.312 41.4375C150.962 41.5013 150.388 41.5331 149.783 41.5331C149.209 41.5331 148.635 41.5013 148.285 41.4375C147.838 41.3419 147.775 41.2144 147.711 40.8ZM138.436 38.505C145.384 38.505 147.807 34.0425 147.807 27.2531C147.807 20.4638 145.384 15.9375 138.436 15.9375C131.488 15.9375 129.066 20.4638 129.066 27.2531C129.066 34.0425 131.488 38.505 138.436 38.505ZM181.151 24.8306C181.151 18.9338 179.462 16.0331 173.852 16.0331C168.944 16.0331 165.152 18.5831 165.152 26.0419V40.8C165.152 41.2463 165.152 41.3738 164.642 41.4375C164.227 41.5013 163.59 41.5331 162.952 41.5331C162.315 41.5331 161.678 41.5013 161.263 41.4375C160.753 41.3738 160.753 41.2463 160.753 40.8V13.6744C160.753 13.2281 160.817 13.1325 161.263 13.0369C161.614 12.9731 162.188 12.9412 162.793 12.9412C163.367 12.9412 163.94 12.9731 164.291 13.0369C164.737 13.1325 164.801 13.2281 164.865 13.6744L165.152 15.6825C165.183 15.9375 165.311 16.0331 165.566 16.0331H165.661C165.916 16.0331 166.012 16.0331 166.235 15.7781C167.797 14.1206 170.315 12.6225 174.809 12.6225C182.266 12.6225 185.549 16.0969 185.549 24.1613V40.8C185.549 41.2463 185.549 41.3738 185.039 41.4375C184.625 41.5013 183.988 41.5331 183.35 41.5331C182.713 41.5331 182.075 41.5013 181.661 41.4375C181.151 41.3738 181.151 41.2463 181.151 40.8V24.8306ZM192.588 20.5275C192.588 14.0888 198.516 12.5588 204.826 12.5588C209.352 12.5588 213.336 13.5469 214.451 13.8975C215.089 14.0887 215.025 14.28 215.025 15.0131C215.025 15.6506 214.961 16.4156 214.834 16.9575C214.738 17.3081 214.611 17.4038 214.388 17.4038C214.292 17.4038 214.133 17.3719 213.973 17.34C210.882 16.6069 208.237 16.0013 204.89 16.0013C201.129 16.0013 197.082 16.6706 197.082 20.145C197.082 23.3644 199.95 23.8106 205.432 24.7669C212.699 26.0419 216.427 27.54 216.427 33.5325C216.427 40.2263 209.989 41.82 203.679 41.82C198.643 41.82 194.372 40.8 192.97 40.4175C192.396 40.2581 192.333 40.1306 192.301 39.6844C192.237 38.9513 192.333 37.74 192.492 37.1025C192.588 36.72 192.683 36.5925 192.906 36.5925C193.034 36.5925 193.161 36.6244 193.321 36.6563C195.488 37.23 199.408 38.3775 203.902 38.3775C207.535 38.3775 211.934 37.74 211.934 33.7875C211.934 30.855 210.276 29.8669 204.667 28.9106C197.4 27.6994 192.588 26.5519 192.588 20.5275Z" fill="#1E3123"/>
<path d="M120.792 32.5125C122.025 32.5125 123.023 31.5135 123.023 30.2813C123.023 29.049 122.025 28.05 120.792 28.05C119.56 28.05 118.561 29.049 118.561 30.2813C118.561 31.5135 119.56 32.5125 120.792 32.5125Z" fill="#4E7A58"/>
</g>
</g>
<defs>
<clipPath id="clip0_18_485">
<rect width="218" height="51" fill="white"/>
</clipPath>
</defs>
</svg>
