<svg width="348" height="56" viewBox="0 0 348 56" fill="none" xmlns="http://www.w3.org/2000/svg">
<path d="M133.123 11.325C133.373 10.725 133.648 10.625 134.298 10.625H139.873C140.523 10.625 140.823 10.875 140.873 11.575L142.823 39.45V39.6C142.823 39.85 142.723 39.95 142.373 40C141.948 40.075 141.348 40.1 140.723 40.1C140.023 40.1 139.348 40.075 138.898 40C138.473 39.95 138.398 39.85 138.373 39.5L136.998 14.925C136.998 14.775 136.898 14.675 136.748 14.675H136.273C136.073 14.675 136.073 14.725 135.973 14.925L127.498 34.25C127.248 34.85 127.123 34.95 126.473 34.95H122.223C121.573 34.95 121.473 34.85 121.198 34.25L112.723 14.925C112.623 14.725 112.623 14.675 112.423 14.675H111.948C111.798 14.675 111.698 14.775 111.698 14.925L110.323 39.5C110.298 39.85 110.223 39.95 109.823 40C109.398 40.075 108.723 40.125 108.048 40.125C107.373 40.125 106.723 40.075 106.273 40C105.873 39.95 105.773 39.8 105.823 39.45L107.773 11.575C107.823 10.875 108.123 10.625 108.773 10.625H114.398C115.048 10.625 115.323 10.725 115.573 11.325L123.823 30.25C123.923 30.45 123.973 30.5 124.173 30.5H124.523C124.723 30.5 124.798 30.475 124.898 30.25L133.123 11.325ZM173.287 36.4C173.662 36.4 173.812 36.5 173.862 36.9C173.912 37.275 173.937 37.725 173.937 38.2C173.937 38.675 173.912 39.125 173.862 39.5C173.812 39.9 173.662 40 173.287 40H152.012C151.362 40 151.012 39.75 151.012 39.05V11.575C151.012 10.875 151.362 10.625 152.012 10.625H172.612C172.987 10.625 173.137 10.725 173.187 11.125C173.237 11.5 173.262 11.95 173.262 12.425C173.262 12.9 173.237 13.35 173.187 13.725C173.137 14.125 172.987 14.225 172.612 14.225H156.037C155.662 14.225 155.512 14.4 155.512 14.75V22.5C155.512 22.85 155.662 23.025 156.037 23.025H166.787C167.162 23.025 167.312 23.125 167.362 23.525C167.412 23.9 167.437 24.35 167.437 24.825C167.437 25.3 167.412 25.75 167.362 26.125C167.312 26.525 167.162 26.625 166.787 26.625H156.037C155.662 26.625 155.512 26.8 155.512 27.15V35.875C155.512 36.225 155.662 36.4 156.037 36.4H173.287ZM206.749 39.05C206.749 39.75 206.399 40 205.749 40H200.099C199.424 40 199.049 39.925 198.774 39.45L185.049 15.1C184.899 14.85 184.899 14.85 184.599 14.85H184.249C183.949 14.85 183.949 14.9 183.949 15.2V39.325C183.949 39.775 183.899 39.925 183.449 40C182.924 40.075 182.374 40.1 181.799 40.1C181.224 40.1 180.699 40.075 180.174 40C179.724 39.925 179.674 39.775 179.674 39.325V11.575C179.674 10.875 180.024 10.625 180.674 10.625H186.349C187.024 10.625 187.374 10.65 187.674 11.175L201.349 35.45C201.499 35.7 201.499 35.7 201.799 35.7H202.149C202.474 35.7 202.474 35.65 202.474 35.35V11.3C202.474 10.85 202.524 10.7 202.974 10.625C203.499 10.55 204.024 10.525 204.599 10.525C205.174 10.525 205.724 10.55 206.249 10.625C206.699 10.7 206.749 10.85 206.749 11.3V39.05ZM241.654 27.675C241.654 37.35 236.804 40.525 228.554 40.525C220.304 40.525 215.454 37.35 215.454 27.675V11.3C215.454 10.85 215.554 10.7 215.954 10.625C216.329 10.55 216.929 10.5 217.704 10.5C218.479 10.5 219.079 10.55 219.454 10.625C219.854 10.7 219.954 10.85 219.954 11.3V27.625C219.954 34.95 222.879 36.95 228.579 36.95C234.279 36.95 237.204 34.95 237.204 27.625V11.3C237.204 10.85 237.304 10.7 237.704 10.625C238.079 10.55 238.654 10.5 239.429 10.5C240.204 10.5 240.779 10.55 241.154 10.625C241.554 10.7 241.654 10.85 241.654 11.3V27.675Z" fill="#1E3023"/>
</svg>
